{
  "asset": {
    "generator": "Khronos glTF Blender I/O v3.2.43",
    "version": "2.0"
  },
  "scene": 0,
  "scenes": [
    {
      "name": "Scene",
      "nodes": [0, 1, 2, 3]
    }
  ],
  "nodes": [
    {
      "mesh": 0,
      "name": "Body"
    },
    {
      "mesh": 1,
      "name": "Logo",
      "rotation": [0.5, 0.5, -0.5, 0.5],
      "scale": [0.04102620854973793, 0.04102620854973793, 0.04102620854973793],
      "translation": [0.7636826038360596, 1.0553669929504395, -0.6398122906684875]
    },
    {
      "mesh": 2,
      "name": "DisplayDuo",
      "rotation": [0.5, 0.5, -0.5, 0.5000000596046448],
      "scale": [0.31849905848503113, 0.254855215549469, 0.254855215549469],
      "translation": [0.7636103630065918, 1.1551182270050049, -0.6007532477378845]
    },
    {
      "mesh": 3,
      "name": "DisplaySingle",
      "rotation": [0.5, 0.5, -0.5, 0.5000000596046448],
      "scale": [0.31849905848503113, 0.254855215549469, 0.254855215549469],
      "translation": [0.7636103630065918, 1.1551182270050049, 0.18792763352394104]
    }
  ],
  "materials": [
    {
      "doubleSided": true,
      "name": "Metall_MAT",
      "pbrMetallicRoughness": {
        "baseColorFactor": [0.9848847389221191, 0.9848847389221191, 0.9848847389221191, 1],
        "roughnessFactor": 0.35039371252059937
      }
    },
    {
      "doubleSided": true,
      "name": "Black_MAT",
      "pbrMetallicRoughness": {
        "baseColorFactor": [0, 0, 0, 1],
        "metallicFactor": 0
      }
    },
    {
      "doubleSided": true,
      "name": "Tire_MAT",
      "pbrMetallicRoughness": {
        "baseColorFactor": [0.035217758268117905, 0.035217758268117905, 0.035217758268117905, 1],
        "metallicFactor": 0
      }
    },
    {
      "doubleSided": true,
      "name": "Display_MAT",
      "pbrMetallicRoughness": {
        "baseColorFactor": [0, 0, 0, 1],
        "roughnessFactor": 0.02755904197692871
      }
    },
    {
      "alphaMode": "BLEND",
      "doubleSided": true,
      "name": "memmert-logo-F32A42FAB8-seeklogo.com",
      "pbrMetallicRoughness": {
        "baseColorTexture": {
          "index": 0
        },
        "metallicFactor": 0,
        "roughnessFactor": 0.5
      }
    },
    {
      "alphaMode": "BLEND",
      "doubleSided": true,
      "name": "pixil-frame-0",
      "pbrMetallicRoughness": {
        "baseColorTexture": {
          "index": 1
        },
        "metallicFactor": 0,
        "roughnessFactor": 0.5
      }
    }
  ],
  "meshes": [
    {
      "name": "Cube.003",
      "primitives": [
        {
          "attributes": {
            "POSITION": 0,
            "NORMAL": 1,
            "TEXCOORD_0": 2
          },
          "indices": 3,
          "material": 0
        },
        {
          "attributes": {
            "POSITION": 4,
            "NORMAL": 5,
            "TEXCOORD_0": 6
          },
          "indices": 7,
          "material": 1
        },
        {
          "attributes": {
            "POSITION": 8,
            "NORMAL": 9,
            "TEXCOORD_0": 10
          },
          "indices": 11,
          "material": 2
        },
        {
          "attributes": {
            "POSITION": 12,
            "NORMAL": 13,
            "TEXCOORD_0": 14
          },
          "indices": 15,
          "material": 3
        }
      ]
    },
    {
      "name": "memmert-logo-F32A42FAB8-seeklogo.com",
      "primitives": [
        {
          "attributes": {
            "POSITION": 16,
            "NORMAL": 17,
            "TEXCOORD_0": 18
          },
          "indices": 19,
          "material": 4
        }
      ]
    },
    {
      "name": "pixil-frame-0.001",
      "primitives": [
        {
          "attributes": {
            "POSITION": 20,
            "NORMAL": 21,
            "TEXCOORD_0": 22
          },
          "indices": 23,
          "material": 5
        }
      ]
    },
    {
      "name": "pixil-frame-0.002",
      "primitives": [
        {
          "attributes": {
            "POSITION": 24,
            "NORMAL": 25,
            "TEXCOORD_0": 26
          },
          "indices": 19,
          "material": 5
        }
      ]
    }
  ],
  "textures": [
    {
      "sampler": 0,
      "source": 0
    },
    {
      "sampler": 0,
      "source": 1
    }
  ],
  "images": [
    {
      "bufferView": 20,
      "mimeType": "image/png",
      "name": "memmert-logo-F32A42FAB8-seeklogo.com"
    },
    {
      "bufferView": 25,
      "mimeType": "image/png",
      "name": "pixil-frame-0"
    }
  ],
  "accessors": [
    {
      "bufferView": 0,
      "componentType": 5126,
      "count": 839,
      "max": [0.798529863357544, 1.240256428718567, 1.2245292663574219],
      "min": [-0.7845380902290344, -1.1229560375213623, -1.2239999771118164],
      "type": "VEC3"
    },
    {
      "bufferView": 1,
      "componentType": 5126,
      "count": 839,
      "type": "VEC3"
    },
    {
      "bufferView": 2,
      "componentType": 5126,
      "count": 839,
      "type": "VEC2"
    },
    {
      "bufferView": 3,
      "componentType": 5123,
      "count": 1119,
      "type": "SCALAR"
    },
    {
      "bufferView": 4,
      "componentType": 5126,
      "count": 9365,
      "max": [0.8836759328842163, 1.2338931560516357, 1.2239999771118164],
      "min": [-0.9865322113037109, -1.4381791353225708, -1.2239999771118164],
      "type": "VEC3"
    },
    {
      "bufferView": 5,
      "componentType": 5126,
      "count": 9365,
      "type": "VEC3"
    },
    {
      "bufferView": 6,
      "componentType": 5126,
      "count": 9365,
      "type": "VEC2"
    },
    {
      "bufferView": 7,
      "componentType": 5123,
      "count": 9780,
      "type": "SCALAR"
    },
    {
      "bufferView": 8,
      "componentType": 5126,
      "count": 7932,
      "max": [0.7776504158973694, -1.2113049030303955, 1.0921417474746704],
      "min": [-0.8808138966560364, -1.4576866626739502, -1.0959810018539429],
      "type": "VEC3"
    },
    {
      "bufferView": 9,
      "componentType": 5126,
      "count": 7932,
      "type": "VEC3"
    },
    {
      "bufferView": 10,
      "componentType": 5126,
      "count": 7932,
      "type": "VEC2"
    },
    {
      "bufferView": 11,
      "componentType": 5123,
      "count": 7938,
      "type": "SCALAR"
    },
    {
      "bufferView": 12,
      "componentType": 5126,
      "count": 31,
      "max": [0.7620990872383118, 1.2398431301116943, 0.7779000997543335],
      "min": [0.6686490774154663, 1.0220173597335815, -0.7785388231277466],
      "type": "VEC3"
    },
    {
      "bufferView": 13,
      "componentType": 5126,
      "count": 31,
      "type": "VEC3"
    },
    {
      "bufferView": 14,
      "componentType": 5126,
      "count": 31,
      "type": "VEC2"
    },
    {
      "bufferView": 15,
      "componentType": 5123,
      "count": 39,
      "type": "SCALAR"
    },
    {
      "bufferView": 16,
      "componentType": 5126,
      "count": 4,
      "max": [2, 0, 0.5],
      "min": [-2, 0, -0.5],
      "type": "VEC3"
    },
    {
      "bufferView": 17,
      "componentType": 5126,
      "count": 4,
      "type": "VEC3"
    },
    {
      "bufferView": 18,
      "componentType": 5126,
      "count": 4,
      "type": "VEC2"
    },
    {
      "bufferView": 19,
      "componentType": 5123,
      "count": 6,
      "type": "SCALAR"
    },
    {
      "bufferView": 21,
      "componentType": 5126,
      "count": 8,
      "max": [0.5, 2.384185791015625e-7, 0.5],
      "min": [-4.187330722808838, 0, -0.5000001788139343],
      "type": "VEC3"
    },
    {
      "bufferView": 22,
      "componentType": 5126,
      "count": 8,
      "type": "VEC3"
    },
    {
      "bufferView": 23,
      "componentType": 5126,
      "count": 8,
      "type": "VEC2"
    },
    {
      "bufferView": 24,
      "componentType": 5123,
      "count": 12,
      "type": "SCALAR"
    },
    {
      "bufferView": 26,
      "componentType": 5126,
      "count": 4,
      "max": [0.5, 0, 0.5],
      "min": [-0.5, 0, -0.5],
      "type": "VEC3"
    },
    {
      "bufferView": 27,
      "componentType": 5126,
      "count": 4,
      "type": "VEC3"
    },
    {
      "bufferView": 28,
      "componentType": 5126,
      "count": 4,
      "type": "VEC2"
    }
  ],
  "bufferViews": [
    {
      "buffer": 0,
      "byteLength": 10068,
      "byteOffset": 0
    },
    {
      "buffer": 0,
      "byteLength": 10068,
      "byteOffset": 10068
    },
    {
      "buffer": 0,
      "byteLength": 6712,
      "byteOffset": 20136
    },
    {
      "buffer": 0,
      "byteLength": 2238,
      "byteOffset": 26848
    },
    {
      "buffer": 0,
      "byteLength": 112380,
      "byteOffset": 29088
    },
    {
      "buffer": 0,
      "byteLength": 112380,
      "byteOffset": 141468
    },
    {
      "buffer": 0,
      "byteLength": 74920,
      "byteOffset": 253848
    },
    {
      "buffer": 0,
      "byteLength": 19560,
      "byteOffset": 328768
    },
    {
      "buffer": 0,
      "byteLength": 95184,
      "byteOffset": 348328
    },
    {
      "buffer": 0,
      "byteLength": 95184,
      "byteOffset": 443512
    },
    {
      "buffer": 0,
      "byteLength": 63456,
      "byteOffset": 538696
    },
    {
      "buffer": 0,
      "byteLength": 15876,
      "byteOffset": 602152
    },
    {
      "buffer": 0,
      "byteLength": 372,
      "byteOffset": 618028
    },
    {
      "buffer": 0,
      "byteLength": 372,
      "byteOffset": 618400
    },
    {
      "buffer": 0,
      "byteLength": 248,
      "byteOffset": 618772
    },
    {
      "buffer": 0,
      "byteLength": 78,
      "byteOffset": 619020
    },
    {
      "buffer": 0,
      "byteLength": 48,
      "byteOffset": 619100
    },
    {
      "buffer": 0,
      "byteLength": 48,
      "byteOffset": 619148
    },
    {
      "buffer": 0,
      "byteLength": 32,
      "byteOffset": 619196
    },
    {
      "buffer": 0,
      "byteLength": 12,
      "byteOffset": 619228
    },
    {
      "buffer": 0,
      "byteLength": 2873,
      "byteOffset": 619240
    },
    {
      "buffer": 0,
      "byteLength": 96,
      "byteOffset": 622116
    },
    {
      "buffer": 0,
      "byteLength": 96,
      "byteOffset": 622212
    },
    {
      "buffer": 0,
      "byteLength": 64,
      "byteOffset": 622308
    },
    {
      "buffer": 0,
      "byteLength": 24,
      "byteOffset": 622372
    },
    {
      "buffer": 0,
      "byteLength": 61168,
      "byteOffset": 622396
    },
    {
      "buffer": 0,
      "byteLength": 48,
      "byteOffset": 683564
    },
    {
      "buffer": 0,
      "byteLength": 48,
      "byteOffset": 683612
    },
    {
      "buffer": 0,
      "byteLength": 32,
      "byteOffset": 683660
    }
  ],
  "samplers": [
    {
      "magFilter": 9729,
      "minFilter": 9987,
      "wrapS": 33071,
      "wrapT": 33071
    }
  ],
  "buffers": [
    {
      "byteLength": 683692,
      "uri": "data:application/octet-stream;base64,"
    }
  ]
}
