<svg width="209" height="40" viewBox="0 0 209 40" fill="none" xmlns="http://www.w3.org/2000/svg">
<path d="M208.811 0.390542H193.163V23.1934H208.965V20.8475H195.604V12.8666H207.419V10.5207H195.604V2.73645H208.809V0.390542H208.811ZM185.028 19.5776L183.419 17.9171C181.348 20.0026 179.398 21.2061 176.43 21.2061C171.668 21.2061 168.048 17.0696 168.048 11.7588C168.048 6.44792 171.635 2.37779 176.43 2.37779C179.368 2.37779 181.409 3.67959 183.232 5.50478L184.902 3.61583C182.738 1.46652 180.387 0 176.46 0C170.089 0 165.513 5.31083 165.513 11.8252C165.513 18.3395 170.121 23.5839 176.369 23.5839C180.296 23.5839 182.771 21.9872 185.028 19.5776ZM154.597 23.1934H157.041V0.390542H154.597V23.1934ZM143.897 11.8252C143.897 16.9075 140.404 20.8156 134.928 20.8156H129.855V2.76833H134.928C140.401 2.76833 143.897 6.74282 143.897 11.8252ZM146.432 11.7588C146.432 5.30818 141.73 0.390542 134.928 0.390542H127.414V23.1934H134.928C141.73 23.1934 146.432 18.2093 146.432 11.7588ZM118.011 0.390542H102.362V23.1934H118.164V20.8475H104.804V12.8666H116.618V10.5207H104.804V2.73645H118.008V0.390542H118.011ZM89.6195 4.72369V23.1934H92.0636V0.390542H89.5892L81.702 12.8347L73.8147 0.390542H71.3403V23.1934H73.7214V4.75558L81.6086 16.9394H81.7322L89.6195 4.72369ZM71.3454 32.6673V33.4325H73.6836V40H74.4781V33.4325H76.8163V32.6673H71.3454ZM85.1802 32.6673V35.9245H81.1622V32.6673H80.3778V40H81.1622V36.7003H85.1802V40H85.9647V32.6673H85.1802ZM90.1719 32.6673V40H95.2543V39.2454H90.9588V36.679H94.7574V35.9245H90.9588V33.4192H95.2064V32.6647H90.1744L90.1719 32.6673ZM109.097 32.6673V35.9245H105.079V32.6673H104.294V40H105.079V36.7003H109.097V40H109.881V32.6673H109.097ZM114.088 32.6673V40H119.171V39.2454H114.875V36.679H118.674V35.9245H114.875V33.4192H119.12V32.6647H114.088V32.6673ZM132.289 32.6673V40H136.993V39.2348H133.074V32.6673H132.289ZM139.042 32.6673V33.4325H141.38V40H142.174V33.4325H144.512V32.6673H139.042ZM152.876 32.6673V35.9245H148.858V32.6673H148.074V40H148.858V36.7003H152.876V40H153.661V32.6673H152.876ZM163.089 32.6673V40H163.874V36.8039H167.642V36.0494H163.874V33.4298H168.091V32.6647H163.089V32.6673ZM186.123 32.6673L183.588 36.6684L181.053 32.6673H180.256V40H181.023V34.0701L183.558 37.9888H183.598L186.133 34.0595V40H186.917V32.6673H186.123ZM191.195 40H191.98V32.6673H191.195V40ZM196.258 32.6673V40H200.962V39.2348H197.042V32.6673H196.255H196.258ZM208.062 32.6673L205.696 36.3337L203.348 32.6673H202.392L205.285 37.0988V40H206.079V37.0882L208.973 32.6673H208.057H208.062ZM125.575 33.5786L127.156 37.3193H123.983L125.575 33.5786ZM125.217 32.6142L122.044 40H122.848L123.673 38.0632H127.462L128.276 40H129.121L125.948 32.6142H125.212H125.217ZM173.643 33.5786L175.224 37.3193H172.051L173.643 33.5786ZM173.284 32.6142L170.111 40H170.916L171.741 38.0632H175.529L176.344 40H177.189L174.016 32.6142H173.279H173.284Z" fill="#1D1D1B"/>
<path d="M28.1288 3.00502C25.3794 1.34455 22.2013 0.382812 18.8063 0.382812C8.41946 0.382812 0 9.25103 0 20.1915C0 31.132 8.41946 40.0002 18.8063 40.0002V19.9604C18.8063 12.7048 22.562 6.38705 28.1288 3.00502Z" fill="#FF9800"/>
<path d="M18.8081 19.9597V39.9996C29.195 39.9996 37.6144 31.1313 37.6144 20.1909C37.6144 12.829 33.7931 6.41831 28.1331 3.00439C22.5663 6.38643 18.8106 12.7042 18.8106 19.9597" fill="#007F95"/>
<path d="M55.5401 20.4359V0.382812H37.3795C34.0047 0.382812 30.8493 1.34455 28.1227 3.00236C33.7802 6.41362 37.599 12.8217 37.599 20.1809C37.599 31.116 29.1846 40.0002 18.8027 40.0002H36.9633C47.2216 40.0002 55.5376 31.2409 55.5376 20.4359" fill="#2799AD"/>
</svg>
